<svg id="svg" version="1.1" xmlns="http://www.w3.org/2000/svg" xmlns:xlink="http://www.w3.org/1999/xlink" width="400" height="400" viewBox="0, 0, 400,400"><g id="svgg"><path id="path0" d="M0.000 200.000 L 0.000 400.000 200.000 400.000 L 400.000 400.000 400.000 200.000 L 400.000 0.000 200.000 0.000 L 0.000 0.000 0.000 200.000 M342.800 11.779 C 347.145 12.436,349.018 13.121,350.885 14.735 C 351.805 15.531,353.281 16.140,355.800 16.763 C 360.919 18.030,362.487 18.818,363.841 20.801 C 364.704 22.065,365.512 22.690,367.000 23.243 C 368.336 23.740,369.751 24.752,371.263 26.293 C 372.508 27.562,374.164 29.182,374.945 29.893 C 375.755 30.632,376.575 31.892,376.857 32.831 C 377.128 33.735,377.791 34.773,378.331 35.138 C 380.819 36.818,381.478 37.832,382.953 42.258 C 383.768 44.706,384.771 47.012,385.181 47.383 C 386.240 48.341,387.502 51.469,388.291 55.090 C 389.442 60.372,389.354 245.998,388.200 247.958 C 386.835 250.276,385.527 250.960,381.877 251.264 C 374.314 251.893,222.272 251.638,220.097 250.992 C 215.082 249.503,212.945 243.379,213.899 233.235 C 214.670 225.043,216.070 224.005,227.000 223.523 C 235.745 223.137,238.173 222.727,241.800 221.022 C 245.188 219.430,250.024 218.206,255.400 217.579 C 260.770 216.953,262.951 216.212,265.479 214.153 C 266.843 213.042,268.429 212.191,269.903 211.781 C 275.650 210.181,277.264 209.439,278.645 207.762 C 279.399 206.848,280.747 205.817,281.697 205.430 C 285.256 203.979,286.712 203.112,287.129 202.195 C 287.367 201.674,288.601 200.560,289.872 199.719 C 291.307 198.769,292.719 197.381,293.599 196.054 C 294.378 194.880,295.472 193.680,296.030 193.388 C 297.099 192.828,297.895 191.460,299.018 188.257 C 299.529 186.798,300.138 186.005,301.459 185.073 C 303.336 183.750,304.066 182.102,305.192 176.652 C 305.742 173.986,307.693 169.395,308.783 168.200 C 310.733 166.062,311.201 159.466,311.569 129.000 C 311.932 98.872,311.979 98.371,314.694 95.199 C 315.604 94.135,316.430 92.486,317.035 90.526 C 318.074 87.159,318.714 86.265,320.871 85.164 C 321.680 84.751,322.461 84.039,322.606 83.580 C 323.066 82.131,325.185 80.067,326.720 79.572 C 329.698 78.613,329.784 76.332,326.865 75.712 C 320.789 74.419,303.144 76.690,301.477 78.979 C 301.054 79.559,299.514 80.625,298.054 81.347 C 292.550 84.070,291.348 85.104,288.424 89.627 C 287.348 91.291,285.849 93.126,285.092 93.702 C 283.105 95.218,282.920 95.994,282.011 106.600 C 281.558 111.880,281.107 116.567,281.007 117.017 C 280.908 117.466,280.637 121.156,280.406 125.217 C 279.971 132.840,279.202 142.061,278.188 151.800 C 277.867 154.880,277.328 160.100,276.991 163.400 C 275.875 174.309,275.189 176.927,272.800 179.400 C 272.163 180.060,271.255 181.500,270.782 182.600 C 268.696 187.459,268.332 188.018,266.724 188.839 C 265.590 189.417,264.918 190.135,264.387 191.336 C 263.474 193.400,262.367 194.458,259.935 195.588 C 258.784 196.123,257.687 197.034,257.069 197.968 C 255.910 199.719,253.677 200.893,250.200 201.579 C 246.363 202.336,245.078 202.823,243.800 204.003 C 240.552 207.001,225.651 209.118,219.788 207.414 C 217.830 206.844,214.252 204.204,213.969 203.119 C 212.829 198.748,213.837 110.376,215.049 108.488 C 215.370 107.987,216.080 104.567,216.626 100.888 C 217.961 91.897,218.322 90.909,221.380 87.879 C 222.757 86.516,224.348 84.656,224.917 83.747 C 225.654 82.568,226.875 81.548,229.175 80.190 C 232.991 77.937,232.924 78.166,230.295 76.365 L 228.200 74.930 200.103 74.854 L 172.006 74.778 170.207 76.436 L 168.408 78.094 170.104 79.376 C 171.037 80.081,172.399 81.005,173.131 81.429 C 173.863 81.853,175.074 83.050,175.822 84.088 C 176.570 85.127,177.875 86.435,178.721 86.995 C 180.909 88.443,181.848 90.411,182.740 95.418 C 183.169 97.828,183.827 100.610,184.202 101.600 C 186.593 107.914,186.498 107.347,186.873 117.400 C 187.071 122.680,187.180 144.133,187.116 165.074 L 187.000 203.148 185.812 204.387 C 182.452 207.894,177.323 208.545,165.200 207.003 C 159.221 206.242,158.908 206.133,156.551 203.982 C 155.294 202.835,154.345 202.370,152.551 202.022 C 145.895 200.732,145.300 200.453,143.134 197.607 C 142.155 196.320,141.212 195.607,139.794 195.080 C 137.264 194.141,136.832 193.764,135.920 191.709 C 135.435 190.614,134.526 189.575,133.341 188.760 C 131.437 187.449,130.499 185.817,129.001 181.200 C 128.589 179.929,127.647 178.298,126.770 177.338 C 123.651 173.920,122.518 163.383,122.155 134.400 L 121.928 116.200 120.772 113.959 C 119.420 111.339,118.730 108.480,117.785 101.600 C 117.080 96.459,116.193 93.945,114.825 93.213 C 113.883 92.709,112.035 90.161,110.448 87.176 C 108.986 84.426,109.047 84.472,104.314 82.630 C 100.645 81.202,99.498 80.461,97.940 78.510 C 96.478 76.681,80.706 74.666,74.080 75.462 C 70.198 75.928,69.829 78.114,73.358 79.729 C 75.145 80.547,75.693 81.063,76.651 82.828 C 77.440 84.282,78.301 85.223,79.400 85.831 C 81.330 86.897,82.124 88.114,83.297 91.800 C 83.787 93.340,84.679 95.294,85.281 96.142 C 88.187 100.242,88.095 99.289,88.419 128.600 C 88.789 162.164,89.121 166.158,91.807 169.310 C 93.020 170.733,94.800 175.152,94.800 176.738 C 94.800 178.712,96.863 183.416,98.360 184.854 C 99.248 185.708,100.204 187.172,100.592 188.273 C 101.665 191.316,102.205 192.122,103.993 193.349 C 104.914 193.981,106.217 195.391,106.889 196.483 C 107.577 197.601,108.851 198.932,109.809 199.533 C 110.743 200.120,112.122 201.410,112.872 202.400 C 113.856 203.698,114.834 204.439,116.378 205.057 C 118.670 205.975,120.600 207.538,121.001 208.803 C 121.158 209.297,121.861 209.742,122.924 210.019 C 129.455 211.720,132.166 212.796,133.762 214.320 C 135.670 216.143,138.178 216.950,143.951 217.598 C 149.386 218.208,155.527 219.874,157.776 221.348 C 159.333 222.368,162.575 222.836,171.616 223.348 C 185.956 224.160,187.185 225.291,187.197 237.684 C 187.203 243.807,186.498 246.794,184.638 248.522 C 181.230 251.690,189.926 251.400,98.200 251.400 C 4.901 251.400,13.987 251.757,12.100 248.015 L 11.200 246.230 11.208 154.015 C 11.213 94.895,11.359 60.795,11.615 59.000 C 12.229 54.690,13.075 52.226,14.544 50.467 C 15.520 49.299,16.115 47.951,16.722 45.530 C 17.935 40.695,18.623 39.306,20.951 36.996 C 22.240 35.718,23.215 34.327,23.508 33.348 C 24.023 31.629,25.513 30.020,27.396 29.147 C 28.054 28.842,28.843 28.054,29.148 27.396 C 30.048 25.458,31.090 24.567,33.805 23.413 C 35.697 22.609,36.575 21.970,37.167 20.966 C 38.255 19.122,40.026 18.132,43.596 17.373 C 48.104 16.414,49.144 16.025,50.589 14.756 C 52.712 12.892,55.533 12.078,62.000 11.461 C 67.384 10.948,339.341 11.256,342.800 11.779 M180.170 269.228 C 182.262 270.211,186.188 274.195,187.014 276.172 C 188.572 279.901,187.046 301.432,185.013 304.396 C 184.421 305.260,183.805 307.108,183.413 309.200 C 181.896 317.284,180.770 318.776,174.432 321.096 C 173.020 321.613,171.268 322.560,170.539 323.200 C 169.051 324.506,165.366 325.775,161.786 326.213 C 160.469 326.374,158.892 326.863,158.267 327.303 L 157.135 328.101 158.267 328.848 C 159.981 329.978,240.450 330.005,241.917 328.877 L 242.834 328.171 241.917 327.324 C 241.293 326.748,240.042 326.334,238.000 326.028 C 233.658 325.378,231.344 324.509,229.842 322.962 C 229.114 322.213,228.267 321.598,227.960 321.596 C 226.588 321.587,223.278 319.621,222.488 318.347 C 222.029 317.606,220.996 316.370,220.192 315.600 C 218.064 313.560,217.665 312.551,216.613 306.550 C 216.090 303.570,215.400 300.832,215.080 300.466 C 213.320 298.456,213.200 297.636,213.200 287.600 C 213.200 276.845,213.217 276.762,215.964 274.280 C 218.289 272.179,213.195 272.308,296.320 272.252 C 360.098 272.209,373.202 272.108,374.200 271.655 C 374.860 271.355,377.380 270.971,379.800 270.801 L 384.200 270.493 386.072 272.060 C 389.429 274.871,389.249 272.613,389.098 310.000 C 388.946 347.623,388.989 347.169,385.274 350.473 C 384.380 351.268,383.944 352.147,383.588 353.873 C 382.683 358.255,381.619 360.470,379.353 362.681 C 377.772 364.224,377.103 365.231,376.763 366.581 C 376.265 368.557,374.352 370.596,372.577 371.042 C 371.948 371.199,371.276 371.866,370.795 372.810 C 370.046 374.278,368.278 376.000,367.520 376.000 C 366.195 376.000,363.146 377.842,362.263 379.177 C 361.079 380.966,358.754 382.156,355.171 382.805 C 351.694 383.436,350.479 384.004,348.600 385.878 L 347.000 387.474 341.400 388.237 C 334.011 389.244,66.285 389.452,60.800 388.455 C 57.102 387.783,55.449 387.123,53.450 385.523 C 52.359 384.650,50.684 383.956,47.800 383.182 C 42.890 381.865,42.340 381.593,40.979 379.807 C 40.235 378.832,38.709 377.845,35.792 376.451 C 32.228 374.749,31.551 374.267,30.875 372.950 C 30.404 372.032,29.156 370.767,27.746 369.779 C 25.911 368.493,25.044 367.502,23.765 365.230 C 22.866 363.632,21.353 361.487,20.402 360.463 C 18.669 358.598,17.225 355.999,17.209 354.714 C 17.188 353.076,15.808 350.077,14.395 348.600 C 11.133 345.189,10.797 341.183,10.813 305.886 C 10.831 266.126,9.894 267.897,30.000 269.603 C 36.297 270.138,113.623 270.104,130.800 269.559 C 144.103 269.137,164.552 268.621,173.904 268.472 C 177.723 268.411,178.677 268.526,180.170 269.228 " stroke="none" fill="#f8f9f9" fill-rule="evenodd"></path><path id="path1" d="M19.769 277.467 C 18.759 277.724,17.836 278.030,17.719 278.147 C 17.415 278.452,17.542 327.235,17.856 330.600 C 18.000 332.140,18.540 334.526,19.056 335.902 C 19.661 337.514,20.150 340.076,20.431 343.102 C 21.250 351.923,21.591 353.264,23.151 353.786 C 24.900 354.372,26.293 356.016,26.639 357.902 C 27.009 359.920,27.565 360.637,29.595 361.710 C 30.825 362.360,31.612 363.179,32.357 364.585 C 33.162 366.101,33.857 366.785,35.400 367.575 C 36.917 368.353,37.618 369.031,38.301 370.386 C 39.251 372.271,40.401 373.162,41.913 373.186 C 43.615 373.212,45.660 374.380,47.408 376.324 C 49.391 378.530,50.713 378.955,57.000 379.410 C 58.980 379.553,61.950 379.935,63.600 380.258 C 69.078 381.332,84.010 381.446,208.400 381.369 L 331.800 381.292 336.177 380.446 C 338.585 379.981,341.645 379.591,342.977 379.581 C 347.434 379.545,353.332 378.575,353.788 377.802 C 355.723 374.523,355.850 374.423,360.109 372.797 C 361.803 372.151,363.085 371.239,364.923 369.373 C 366.301 367.975,368.101 366.550,368.924 366.206 C 370.473 365.559,372.000 364.278,372.000 363.625 C 372.000 360.366,375.125 355.135,377.416 354.560 C 378.572 354.270,378.614 354.133,379.240 348.600 C 379.514 346.180,380.339 342.040,381.073 339.400 C 381.807 336.760,382.856 332.933,383.404 330.895 L 384.400 327.190 384.400 302.642 L 384.400 278.093 383.300 277.770 C 381.464 277.229,221.998 277.104,221.349 277.642 C 220.906 278.010,220.799 280.394,220.797 289.949 C 220.794 304.206,221.177 307.637,222.917 308.931 C 225.725 311.019,226.774 312.294,227.037 313.939 C 227.390 316.148,227.444 316.173,233.400 316.934 C 240.695 317.866,243.028 318.600,244.998 320.583 C 245.882 321.472,247.254 322.530,248.048 322.933 C 253.075 325.489,252.212 330.972,246.400 333.405 C 244.970 334.003,243.373 334.920,242.851 335.441 C 241.114 337.176,240.625 337.196,200.600 337.180 C 160.401 337.164,159.137 337.114,157.812 335.463 C 157.366 334.906,155.604 333.788,153.897 332.979 C 147.540 329.966,147.121 326.116,152.809 323.000 C 154.014 322.340,155.572 321.245,156.271 320.567 C 158.464 318.439,161.593 317.523,170.200 316.488 C 172.571 316.203,172.611 316.178,173.485 314.348 C 174.404 312.426,176.434 310.400,177.441 310.400 C 179.006 310.400,180.530 279.159,179.038 277.667 C 178.185 276.814,23.102 276.619,19.769 277.467 " stroke="none" fill="#846cb4" fill-rule="evenodd"></path><path id="path2" d="M65.400 15.230 C 64.080 15.357,62.640 15.651,62.200 15.881 C 60.390 16.830,55.096 18.404,50.405 19.389 C 45.182 20.485,44.692 20.703,41.037 23.552 C 39.800 24.516,37.666 25.706,36.294 26.197 C 34.387 26.880,33.612 27.400,33.000 28.412 C 32.113 29.877,29.958 32.104,28.047 33.530 C 27.361 34.042,26.800 34.672,26.800 34.930 C 26.799 36.000,24.342 40.482,22.880 42.081 C 20.699 44.465,20.231 45.561,19.238 50.600 C 18.709 53.283,17.833 56.142,16.993 57.927 C 14.676 62.844,14.763 58.869,14.886 155.200 C 15.015 256.704,14.610 246.639,18.600 247.467 C 22.384 248.252,178.305 248.198,179.344 247.411 C 181.395 245.857,181.892 234.415,180.157 228.696 C 179.754 227.368,177.961 226.913,172.000 226.627 C 168.810 226.474,165.660 226.282,165.000 226.200 C 164.340 226.118,162.090 225.935,160.000 225.794 C 152.231 225.267,148.482 224.460,145.743 222.723 C 143.954 221.588,142.796 221.238,134.247 219.241 C 131.268 218.545,130.352 218.129,128.572 216.664 C 127.383 215.685,125.337 214.522,123.924 214.021 C 119.326 212.392,118.366 211.872,117.171 210.364 C 116.427 209.424,115.010 208.412,113.349 207.635 C 109.946 206.042,99.820 195.947,98.100 192.432 C 97.517 191.239,96.451 189.709,95.733 189.032 C 94.702 188.060,94.045 186.674,92.617 182.463 C 91.598 179.455,90.363 176.597,89.789 175.914 C 87.820 173.574,86.943 170.316,86.404 163.344 C 86.215 160.894,85.680 156.934,85.217 154.544 C 83.357 144.962,83.343 144.787,83.010 126.000 C 82.643 105.351,82.556 104.220,80.778 97.000 C 79.439 91.565,79.044 90.479,78.159 89.800 C 76.339 88.403,74.227 86.179,73.400 84.789 C 72.960 84.050,71.790 82.973,70.800 82.397 C 68.247 80.911,67.251 78.994,67.627 76.294 C 68.576 69.481,69.642 68.759,78.052 69.225 C 83.856 69.546,86.129 70.069,87.630 71.427 C 87.992 71.755,90.159 72.472,92.444 73.020 C 99.424 74.695,100.717 75.171,102.510 76.722 C 103.452 77.538,105.478 78.730,107.012 79.371 C 110.831 80.968,111.734 81.667,113.121 84.100 C 113.779 85.255,115.156 86.990,116.179 87.955 C 118.420 90.068,119.256 91.624,120.402 95.817 C 120.881 97.568,121.900 100.275,122.667 101.833 C 125.191 106.962,125.472 110.092,125.760 136.254 C 126.071 164.572,126.315 166.971,129.347 171.576 C 130.095 172.712,130.922 174.487,131.184 175.521 C 132.408 180.351,134.023 183.771,135.849 185.400 C 136.836 186.280,138.129 187.978,138.722 189.172 C 139.315 190.367,140.070 191.481,140.400 191.648 C 140.730 191.815,141.990 192.383,143.200 192.910 C 144.410 193.438,146.245 194.692,147.277 195.697 C 149.073 197.447,152.625 199.200,154.373 199.200 C 155.970 199.200,164.805 201.544,166.845 202.509 C 170.715 204.340,177.607 205.182,179.444 204.048 C 181.257 202.929,181.242 203.320,181.247 155.208 C 181.253 96.270,181.353 97.433,175.721 90.800 C 172.055 86.481,169.703 84.179,166.240 81.520 C 162.601 78.726,162.492 78.522,163.386 76.182 C 164.351 73.653,166.402 71.454,168.960 70.202 L 171.049 69.180 200.625 69.291 L 230.200 69.401 231.818 70.302 C 238.307 73.914,239.274 78.907,234.104 82.108 C 231.099 83.968,225.137 89.771,224.058 91.887 C 223.592 92.800,222.877 93.784,222.469 94.074 C 219.451 96.215,219.410 97.015,219.404 153.335 L 219.400 202.869 220.532 203.842 C 222.259 205.328,230.151 204.492,234.656 202.346 C 236.998 201.230,244.084 199.200,245.636 199.200 C 247.392 199.200,250.986 197.407,253.211 195.422 C 254.505 194.267,256.427 193.000,257.482 192.605 C 259.976 191.672,260.283 191.405,261.406 189.189 C 262.275 187.474,264.798 184.800,265.547 184.800 C 265.722 184.800,266.555 182.955,267.398 180.700 C 269.224 175.817,270.508 173.140,271.368 172.427 C 273.625 170.553,274.195 164.176,274.605 136.200 C 274.724 128.060,274.903 120.410,275.003 119.200 C 275.541 112.694,275.666 111.583,276.238 108.200 C 276.467 106.849,277.423 103.810,277.999 102.600 C 278.209 102.160,278.822 99.981,279.362 97.757 C 280.649 92.450,281.548 90.637,284.166 88.069 C 285.360 86.898,286.623 85.338,286.972 84.603 C 287.701 83.065,289.425 81.510,291.664 80.367 C 292.521 79.930,294.194 78.692,295.383 77.616 C 297.718 75.501,298.278 75.283,306.765 73.180 C 309.496 72.504,312.419 71.599,313.261 71.169 C 315.436 70.060,320.394 69.200,324.622 69.200 C 329.038 69.200,330.304 70.137,331.625 74.380 C 332.961 78.675,332.393 80.344,328.818 82.621 C 327.369 83.544,326.261 84.603,325.857 85.450 C 325.465 86.271,324.359 87.348,323.040 88.192 C 320.668 89.709,320.553 89.935,319.366 95.400 C 318.984 97.160,318.360 99.950,317.981 101.600 C 317.419 104.043,317.280 106.827,317.230 116.600 C 317.148 132.781,316.438 143.201,314.588 155.400 C 314.254 157.600,313.710 162.006,313.379 165.191 C 312.644 172.269,312.309 173.441,310.342 175.821 C 309.404 176.956,308.549 178.579,308.168 179.946 C 306.721 185.144,306.247 186.224,304.837 187.540 C 304.046 188.276,303.040 189.219,302.600 189.634 C 302.160 190.049,301.450 191.515,301.021 192.893 C 299.721 197.079,290.528 206.088,286.150 207.468 C 284.410 208.017,283.555 208.584,282.444 209.924 C 280.776 211.937,280.053 212.362,275.468 214.021 C 273.425 214.760,271.492 215.782,270.551 216.620 C 268.794 218.184,266.887 218.890,262.000 219.788 C 258.091 220.506,254.867 221.480,254.000 222.205 C 251.048 224.675,244.007 225.845,227.269 226.647 C 222.918 226.856,221.350 227.076,220.760 227.561 C 218.523 229.398,218.757 245.809,221.044 247.482 C 222.013 248.190,377.966 248.166,381.997 247.457 L 384.595 247.000 385.102 244.200 C 385.503 241.982,385.587 222.469,385.504 150.400 L 385.400 59.400 384.544 57.800 C 381.965 52.980,381.506 51.856,381.013 49.155 C 380.067 43.979,378.902 41.178,377.003 39.515 C 376.028 38.661,374.759 36.925,374.015 35.430 C 373.005 33.399,372.340 32.607,370.974 31.806 C 370.012 31.242,368.669 29.972,367.989 28.984 C 367.049 27.618,366.148 26.912,364.237 26.046 C 362.577 25.293,361.275 24.349,360.406 23.267 C 358.935 21.437,356.372 20.423,349.179 18.827 C 347.078 18.361,344.229 17.445,342.848 16.792 C 341.467 16.139,339.856 15.490,339.269 15.351 C 337.925 15.033,68.665 14.913,65.400 15.230 " stroke="none" fill="#74ac94" fill-rule="evenodd"></path><path id="path3" d="M62.000 11.461 C 55.533 12.078,52.712 12.892,50.589 14.756 C 49.144 16.025,48.104 16.414,43.596 17.373 C 40.026 18.132,38.255 19.122,37.167 20.966 C 36.575 21.970,35.697 22.609,33.805 23.413 C 31.090 24.567,30.048 25.458,29.148 27.396 C 28.843 28.054,28.054 28.842,27.396 29.147 C 25.513 30.020,24.023 31.629,23.508 33.348 C 23.215 34.327,22.240 35.718,20.951 36.996 C 18.623 39.306,17.935 40.695,16.722 45.530 C 16.115 47.951,15.520 49.299,14.544 50.467 C 13.075 52.226,12.229 54.690,11.615 59.000 C 11.359 60.795,11.213 94.895,11.208 154.015 L 11.200 246.230 12.100 248.015 C 13.987 251.757,4.901 251.400,98.200 251.400 C 189.926 251.400,181.230 251.690,184.638 248.522 C 186.498 246.794,187.203 243.807,187.197 237.684 C 187.185 225.291,185.956 224.160,171.616 223.348 C 162.575 222.836,159.333 222.368,157.776 221.348 C 155.527 219.874,149.386 218.208,143.951 217.598 C 138.178 216.950,135.670 216.143,133.762 214.320 C 132.166 212.796,129.455 211.720,122.924 210.019 C 121.861 209.742,121.158 209.297,121.001 208.803 C 120.600 207.538,118.670 205.975,116.378 205.057 C 114.834 204.439,113.856 203.698,112.872 202.400 C 112.122 201.410,110.743 200.120,109.809 199.533 C 108.851 198.932,107.577 197.601,106.889 196.483 C 106.217 195.391,104.914 193.981,103.993 193.349 C 102.205 192.122,101.665 191.316,100.592 188.273 C 100.204 187.172,99.248 185.708,98.360 184.854 C 96.863 183.416,94.800 178.712,94.800 176.738 C 94.800 175.152,93.020 170.733,91.807 169.310 C 89.121 166.158,88.789 162.164,88.419 128.600 C 88.095 99.289,88.187 100.242,85.281 96.142 C 84.679 95.294,83.787 93.340,83.297 91.800 C 82.124 88.114,81.330 86.897,79.400 85.831 C 78.301 85.223,77.440 84.282,76.651 82.828 C 75.693 81.063,75.145 80.547,73.358 79.729 C 69.829 78.114,70.198 75.928,74.080 75.462 C 80.706 74.666,96.478 76.681,97.940 78.510 C 99.498 80.461,100.645 81.202,104.314 82.630 C 109.047 84.472,108.986 84.426,110.448 87.176 C 112.035 90.161,113.883 92.709,114.825 93.213 C 116.193 93.945,117.080 96.459,117.785 101.600 C 118.730 108.480,119.420 111.339,120.772 113.959 L 121.928 116.200 122.155 134.400 C 122.518 163.383,123.651 173.920,126.770 177.338 C 127.647 178.298,128.589 179.929,129.001 181.200 C 130.499 185.817,131.437 187.449,133.341 188.760 C 134.526 189.575,135.435 190.614,135.920 191.709 C 136.832 193.764,137.264 194.141,139.794 195.080 C 141.212 195.607,142.155 196.320,143.134 197.607 C 145.300 200.453,145.895 200.732,152.551 202.022 C 154.345 202.370,155.294 202.835,156.551 203.982 C 158.908 206.133,159.221 206.242,165.200 207.003 C 177.323 208.545,182.452 207.894,185.812 204.387 L 187.000 203.148 187.116 165.074 C 187.180 144.133,187.071 122.680,186.873 117.400 C 186.498 107.347,186.593 107.914,184.202 101.600 C 183.827 100.610,183.169 97.828,182.740 95.418 C 181.848 90.411,180.909 88.443,178.721 86.995 C 177.875 86.435,176.570 85.127,175.822 84.088 C 175.074 83.050,173.863 81.853,173.131 81.429 C 172.399 81.005,171.037 80.081,170.104 79.376 L 168.408 78.094 170.207 76.436 L 172.006 74.778 200.103 74.854 L 228.200 74.930 230.295 76.365 C 232.924 78.166,232.991 77.937,229.175 80.190 C 226.875 81.548,225.654 82.568,224.917 83.747 C 224.348 84.656,222.757 86.516,221.380 87.879 C 218.322 90.909,217.961 91.897,216.626 100.888 C 216.080 104.567,215.370 107.987,215.049 108.488 C 213.837 110.376,212.829 198.748,213.969 203.119 C 214.252 204.204,217.830 206.844,219.788 207.414 C 225.651 209.118,240.552 207.001,243.800 204.003 C 245.078 202.823,246.363 202.336,250.200 201.579 C 253.677 200.893,255.910 199.719,257.069 197.968 C 257.687 197.034,258.784 196.123,259.935 195.588 C 262.367 194.458,263.474 193.400,264.387 191.336 C 264.918 190.135,265.590 189.417,266.724 188.839 C 268.332 188.018,268.696 187.459,270.782 182.600 C 271.255 181.500,272.163 180.060,272.800 179.400 C 275.189 176.927,275.875 174.309,276.991 163.400 C 277.328 160.100,277.867 154.880,278.188 151.800 C 279.202 142.061,279.971 132.840,280.406 125.217 C 280.637 121.156,280.908 117.466,281.007 117.017 C 281.107 116.567,281.558 111.880,282.011 106.600 C 282.920 95.994,283.105 95.218,285.092 93.702 C 285.849 93.126,287.348 91.291,288.424 89.627 C 291.348 85.104,292.550 84.070,298.054 81.347 C 299.514 80.625,301.054 79.559,301.477 78.979 C 303.144 76.690,320.789 74.419,326.865 75.712 C 329.784 76.332,329.698 78.613,326.720 79.572 C 325.185 80.067,323.066 82.131,322.606 83.580 C 322.461 84.039,321.680 84.751,320.871 85.164 C 318.714 86.265,318.074 87.159,317.035 90.526 C 316.430 92.486,315.604 94.135,314.694 95.199 C 311.979 98.371,311.932 98.872,311.569 129.000 C 311.201 159.466,310.733 166.062,308.783 168.200 C 307.693 169.395,305.742 173.986,305.192 176.652 C 304.066 182.102,303.336 183.750,301.459 185.073 C 300.138 186.005,299.529 186.798,299.018 188.257 C 297.895 191.460,297.099 192.828,296.030 193.388 C 295.472 193.680,294.378 194.880,293.599 196.054 C 292.719 197.381,291.307 198.769,289.872 199.719 C 288.601 200.560,287.367 201.674,287.129 202.195 C 286.712 203.112,285.256 203.979,281.697 205.430 C 280.747 205.817,279.399 206.848,278.645 207.762 C 277.264 209.439,275.650 210.181,269.903 211.781 C 268.429 212.191,266.843 213.042,265.479 214.153 C 262.951 216.212,260.770 216.953,255.400 217.579 C 250.024 218.206,245.188 219.430,241.800 221.022 C 238.173 222.727,235.745 223.137,227.000 223.523 C 216.070 224.005,214.670 225.043,213.899 233.235 C 212.945 243.379,215.082 249.503,220.097 250.992 C 222.272 251.638,374.314 251.893,381.877 251.264 C 385.527 250.960,386.835 250.276,388.200 247.958 C 389.354 245.998,389.442 60.372,388.291 55.090 C 387.502 51.469,386.240 48.341,385.181 47.383 C 384.771 47.012,383.768 44.706,382.953 42.258 C 381.478 37.832,380.819 36.818,378.331 35.138 C 377.791 34.773,377.128 33.735,376.857 32.831 C 376.575 31.892,375.755 30.632,374.945 29.893 C 374.164 29.182,372.508 27.562,371.263 26.293 C 369.751 24.752,368.336 23.740,367.000 23.243 C 365.512 22.690,364.704 22.065,363.841 20.801 C 362.487 18.818,360.919 18.030,355.800 16.763 C 353.281 16.140,351.805 15.531,350.885 14.735 C 349.018 13.121,347.145 12.436,342.800 11.779 C 339.341 11.256,67.384 10.948,62.000 11.461 M312.600 14.900 L 340.600 15.000 343.092 16.302 C 344.462 17.018,347.162 17.970,349.092 18.418 C 356.284 20.088,359.130 21.197,360.424 22.831 C 361.128 23.719,362.696 24.873,364.276 25.665 C 366.182 26.620,367.310 27.513,368.239 28.800 C 368.953 29.790,370.137 30.951,370.869 31.381 C 372.596 32.394,373.458 33.402,374.421 35.538 C 374.852 36.494,376.073 38.114,377.135 39.138 C 379.154 41.085,379.878 42.847,381.812 50.516 C 382.189 52.010,382.948 53.896,383.499 54.707 C 385.987 58.374,385.787 50.627,385.930 149.200 C 386.061 239.999,385.982 246.068,384.657 247.145 C 383.223 248.311,377.217 248.400,300.185 248.400 C 209.926 248.400,220.072 248.947,219.261 244.039 C 218.677 240.503,218.667 233.827,219.241 230.530 C 219.900 226.747,220.270 226.575,228.400 226.259 C 240.808 225.777,247.394 224.753,252.033 222.585 C 254.948 221.222,257.316 220.461,260.808 219.766 C 266.299 218.674,267.991 218.051,270.131 216.338 C 270.973 215.664,273.478 214.424,275.696 213.582 C 279.033 212.317,280.067 211.711,281.677 210.076 C 283.037 208.694,284.338 207.838,286.001 207.232 C 290.609 205.552,299.169 196.960,300.862 192.317 C 301.532 190.481,302.292 189.359,303.893 187.841 C 305.894 185.944,306.119 185.530,307.432 181.326 C 308.437 178.104,309.221 176.372,310.204 175.195 C 311.962 173.091,312.245 172.020,313.212 163.800 C 313.652 160.060,314.185 156.100,314.396 155.000 C 315.208 150.774,316.083 135.550,316.397 120.200 L 316.725 104.200 318.389 97.600 C 320.396 89.645,320.523 89.367,322.800 87.958 C 323.790 87.346,325.038 86.129,325.574 85.255 C 326.110 84.381,327.338 83.167,328.302 82.557 C 332.051 80.187,332.576 78.721,331.226 74.385 C 329.982 70.387,328.952 69.600,324.960 69.600 C 321.224 69.600,316.249 70.444,314.425 71.387 C 313.748 71.737,310.217 72.746,306.577 73.629 C 298.454 75.600,298.319 75.652,296.138 77.571 C 295.167 78.426,293.121 79.869,291.591 80.778 C 289.429 82.062,288.433 82.984,287.123 84.915 C 286.196 86.282,284.683 88.165,283.762 89.100 C 281.595 91.301,280.638 93.398,279.389 98.688 C 278.828 101.060,278.007 104.170,277.564 105.600 C 275.737 111.489,275.379 116.274,274.779 142.800 C 274.247 166.328,273.806 170.120,271.230 173.362 C 270.608 174.145,269.266 176.903,268.248 179.492 C 266.117 184.909,266.268 184.655,264.296 186.125 C 263.469 186.742,262.413 188.001,261.950 188.923 C 260.750 191.310,260.164 191.867,257.639 193.019 C 256.408 193.581,254.678 194.747,253.796 195.609 C 251.981 197.385,248.551 198.920,244.932 199.576 C 242.219 200.068,237.648 201.541,235.687 202.555 C 231.853 204.538,222.727 205.511,220.471 204.178 C 218.677 203.119,218.736 205.055,218.896 152.000 C 219.061 97.242,219.123 96.154,222.198 93.601 C 222.557 93.304,223.513 92.060,224.325 90.836 C 226.284 87.882,229.991 84.285,233.237 82.189 C 238.934 78.510,238.242 74.248,231.388 70.800 L 229.400 69.800 200.499 69.692 C 171.605 69.585,171.598 69.585,169.899 70.446 C 167.164 71.832,165.435 73.401,164.253 75.573 C 162.816 78.214,163.016 78.716,166.586 81.402 C 170.517 84.361,178.174 92.371,179.114 94.508 C 179.923 96.349,180.995 102.612,181.423 108.000 C 181.756 112.189,181.714 200.388,181.378 202.177 C 180.745 205.551,172.511 205.780,165.524 202.616 C 164.356 202.087,161.420 201.168,159.000 200.575 C 150.509 198.491,149.291 198.024,147.065 195.995 C 145.021 194.131,142.141 192.400,141.086 192.400 C 140.322 192.400,139.108 190.963,137.800 188.513 C 137.188 187.365,136.083 186.015,135.344 185.513 C 133.991 184.593,132.336 181.090,131.191 176.721 C 130.943 175.774,130.052 173.830,129.212 172.400 C 126.067 167.050,125.991 166.312,125.611 137.800 C 125.260 111.336,124.839 106.643,122.454 102.602 C 122.005 101.840,121.086 99.311,120.413 96.982 C 118.909 91.776,118.134 90.238,116.010 88.244 C 115.099 87.388,113.708 85.678,112.919 84.444 C 111.228 81.797,110.728 81.406,106.872 79.717 C 105.262 79.011,103.295 77.864,102.501 77.167 C 100.613 75.509,99.418 75.040,93.956 73.812 C 91.270 73.208,88.200 72.196,86.477 71.347 C 83.613 69.937,83.432 69.903,77.632 69.698 L 71.711 69.488 70.247 70.844 C 67.165 73.699,67.038 78.979,69.997 81.262 C 70.666 81.778,71.758 82.628,72.424 83.150 C 73.090 83.673,73.986 84.789,74.415 85.630 C 74.844 86.471,75.663 87.483,76.235 87.880 C 79.242 89.964,79.450 90.337,81.001 96.400 C 81.817 99.590,82.640 102.493,82.830 102.850 C 83.020 103.208,83.356 111.668,83.577 121.650 C 84.031 142.204,84.507 150.210,85.583 155.400 C 85.993 157.380,86.450 160.710,86.599 162.800 C 87.062 169.316,88.159 173.217,90.222 175.690 C 90.722 176.290,91.706 178.629,92.408 180.889 C 93.861 185.564,94.741 187.462,95.976 188.579 C 96.450 189.007,97.386 190.388,98.058 191.648 C 99.993 195.279,110.087 205.525,113.502 207.325 C 114.986 208.107,116.909 209.476,117.775 210.367 C 118.849 211.472,120.249 212.326,122.175 213.052 C 126.027 214.505,128.015 215.515,129.200 216.623 C 130.669 217.996,132.543 218.662,138.687 219.998 C 142.074 220.735,145.066 221.648,146.445 222.367 C 150.799 224.635,155.091 225.307,172.105 226.388 C 181.004 226.953,181.118 227.069,181.492 235.941 C 181.770 242.560,181.120 246.518,179.572 247.620 C 178.068 248.691,21.003 248.667,17.402 247.595 L 15.405 247.000 14.921 244.400 C 14.280 240.954,14.180 67.477,14.816 63.077 C 15.066 61.349,15.770 59.082,16.578 57.400 C 17.319 55.860,18.407 52.497,18.995 49.926 C 20.082 45.183,20.865 43.558,23.606 40.363 C 24.284 39.572,25.236 37.952,25.721 36.763 C 26.864 33.965,27.473 33.163,29.304 32.047 C 30.130 31.543,31.257 30.362,31.807 29.424 C 33.109 27.203,33.789 26.647,36.178 25.853 C 37.266 25.491,39.190 24.383,40.453 23.391 C 42.770 21.570,46.477 19.611,47.618 19.604 C 48.863 19.596,56.071 17.552,59.290 16.294 L 62.600 15.000 141.400 14.800 C 214.359 14.615,236.004 14.628,312.600 14.900 M157.000 268.833 C 150.180 268.991,138.390 269.318,130.800 269.559 C 113.623 270.104,36.297 270.138,30.000 269.603 C 16.178 268.430,13.522 269.201,11.530 274.963 C 10.884 276.833,10.825 279.372,10.813 305.886 C 10.797 341.183,11.133 345.189,14.395 348.600 C 15.808 350.077,17.188 353.076,17.209 354.714 C 17.225 355.999,18.669 358.598,20.402 360.463 C 21.353 361.487,22.866 363.632,23.765 365.230 C 25.044 367.502,25.911 368.493,27.746 369.779 C 29.156 370.767,30.404 372.032,30.875 372.950 C 31.551 374.267,32.228 374.749,35.792 376.451 C 38.709 377.845,40.235 378.832,40.979 379.807 C 42.340 381.593,42.890 381.865,47.800 383.182 C 50.684 383.956,52.359 384.650,53.450 385.523 C 55.449 387.123,57.102 387.783,60.800 388.455 C 66.285 389.452,334.011 389.244,341.400 388.237 L 347.000 387.474 348.600 385.878 C 350.479 384.004,351.694 383.436,355.171 382.805 C 358.754 382.156,361.079 380.966,362.263 379.177 C 363.146 377.842,366.195 376.000,367.520 376.000 C 368.278 376.000,370.046 374.278,370.795 372.810 C 371.276 371.866,371.948 371.199,372.577 371.042 C 374.352 370.596,376.265 368.557,376.763 366.581 C 377.103 365.231,377.772 364.224,379.353 362.681 C 381.619 360.470,382.683 358.255,383.588 353.873 C 383.944 352.147,384.380 351.268,385.274 350.473 C 388.989 347.169,388.946 347.623,389.098 310.000 C 389.249 272.613,389.429 274.871,386.072 272.060 L 384.200 270.493 379.800 270.801 C 377.380 270.971,374.860 271.355,374.200 271.655 C 373.202 272.108,360.098 272.209,296.320 272.252 C 213.195 272.308,218.289 272.179,215.964 274.280 C 213.217 276.762,213.200 276.845,213.200 287.600 C 213.200 297.636,213.320 298.456,215.080 300.466 C 215.400 300.832,216.090 303.570,216.613 306.550 C 217.665 312.551,218.064 313.560,220.192 315.600 C 220.996 316.370,222.029 317.606,222.488 318.347 C 223.278 319.621,226.588 321.587,227.960 321.596 C 228.267 321.598,229.114 322.213,229.842 322.962 C 231.344 324.509,233.658 325.378,238.000 326.028 C 240.042 326.334,241.293 326.748,241.917 327.324 L 242.834 328.171 241.917 328.877 C 240.450 330.005,159.981 329.978,158.267 328.848 L 157.135 328.101 158.267 327.303 C 158.892 326.863,160.469 326.374,161.786 326.213 C 165.366 325.775,169.051 324.506,170.539 323.200 C 171.268 322.560,173.020 321.613,174.432 321.096 C 180.770 318.776,181.896 317.284,183.413 309.200 C 183.805 307.108,184.421 305.260,185.013 304.396 C 187.046 301.432,188.572 279.901,187.014 276.172 C 186.188 274.195,182.262 270.211,180.170 269.228 C 178.200 268.302,179.121 268.318,157.000 268.833 M180.626 275.374 L 182.800 277.548 182.788 282.674 C 182.728 309.554,179.955 317.055,169.122 319.642 C 167.395 320.055,164.951 320.924,163.691 321.574 C 162.431 322.224,160.370 323.137,159.112 323.602 C 157.814 324.082,155.996 325.202,154.912 326.188 L 153.000 327.928 154.200 329.201 C 154.860 329.902,156.300 330.941,157.400 331.510 L 159.400 332.546 200.200 332.573 L 241.000 332.600 243.071 331.452 C 244.210 330.821,245.628 329.797,246.222 329.177 L 247.303 328.049 245.318 326.115 C 244.226 325.052,242.628 323.895,241.766 323.544 C 240.905 323.194,239.210 322.503,238.000 322.009 C 236.790 321.515,234.090 320.576,232.000 319.922 C 227.092 318.386,226.460 318.031,224.903 315.941 C 224.190 314.984,223.013 313.570,222.287 312.800 C 220.051 310.427,219.892 310.082,219.100 305.880 C 218.490 302.646,218.288 299.306,218.127 289.764 L 217.923 277.728 219.634 276.264 L 221.344 274.800 298.572 274.701 C 386.713 274.588,383.867 274.556,385.068 275.672 C 386.902 277.378,386.891 277.166,386.662 307.279 C 386.414 339.683,386.419 339.623,383.882 344.832 C 382.873 346.904,381.768 349.819,381.427 351.309 C 380.704 354.468,379.741 356.452,377.985 358.400 C 377.291 359.170,376.187 360.970,375.532 362.400 C 373.593 366.631,373.375 366.937,371.248 368.400 C 370.128 369.170,368.577 370.550,367.803 371.467 C 366.857 372.586,365.309 373.667,363.097 374.753 C 361.284 375.643,359.170 376.936,358.400 377.627 C 356.131 379.663,349.928 381.953,343.895 382.981 C 343.068 383.123,340.728 383.814,338.695 384.519 L 335.000 385.800 200.600 385.800 C 55.472 385.800,65.138 385.939,60.200 383.777 C 59.100 383.296,55.770 382.314,52.800 381.595 C 46.683 380.115,45.878 379.778,44.200 377.998 C 43.540 377.297,41.830 376.125,40.400 375.394 C 35.248 372.760,27.823 365.710,24.873 360.652 C 23.863 358.921,22.708 357.301,22.306 357.052 C 20.806 356.124,19.637 353.649,18.218 348.400 C 17.415 345.430,16.214 341.580,15.549 339.844 C 13.664 334.925,13.605 333.861,13.602 304.993 L 13.600 277.786 14.598 276.318 C 16.005 274.246,11.994 274.368,84.600 274.177 C 139.658 274.033,164.399 273.791,176.526 273.281 C 178.365 273.204,178.550 273.298,180.626 275.374 " stroke="none" fill="#d5c8e0" fill-rule="evenodd"></path><path id="path4" d="M221.105 14.683 C 221.602 14.779,222.322 14.775,222.705 14.675 C 223.087 14.575,222.680 14.496,221.800 14.501 C 220.920 14.505,220.607 14.587,221.105 14.683 M64.905 15.087 C 65.514 15.179,66.414 15.177,66.905 15.082 C 67.397 14.987,66.900 14.911,65.800 14.914 C 64.700 14.917,64.297 14.995,64.905 15.087 M80.300 15.098 C 82.555 15.170,86.245 15.170,88.500 15.098 C 90.755 15.027,88.910 14.969,84.400 14.969 C 79.890 14.969,78.045 15.027,80.300 15.098 M105.322 15.099 C 107.699 15.170,111.479 15.169,113.722 15.098 C 115.965 15.027,114.020 14.969,109.400 14.969 C 104.780 14.970,102.945 15.028,105.322 15.099 M135.300 15.097 C 136.785 15.174,139.215 15.174,140.700 15.097 C 142.185 15.020,140.970 14.957,138.000 14.957 C 135.030 14.957,133.815 15.020,135.300 15.097 M167.900 15.098 C 170.155 15.170,173.845 15.170,176.100 15.098 C 178.355 15.027,176.510 14.969,172.000 14.969 C 167.490 14.969,165.645 15.027,167.900 15.098 M215.100 15.082 C 215.595 15.178,216.405 15.178,216.900 15.082 C 217.395 14.987,216.990 14.909,216.000 14.909 C 215.010 14.909,214.605 14.987,215.100 15.082 M227.305 15.087 C 227.914 15.179,228.814 15.177,229.305 15.082 C 229.797 14.987,229.300 14.911,228.200 14.914 C 227.100 14.917,226.697 14.995,227.305 15.087 M249.100 15.098 C 251.355 15.170,255.045 15.170,257.300 15.098 C 259.555 15.027,257.710 14.969,253.200 14.969 C 248.690 14.969,246.845 15.027,249.100 15.098 M275.500 15.099 C 278.635 15.167,283.765 15.167,286.900 15.099 C 290.035 15.032,287.470 14.976,281.200 14.976 C 274.930 14.976,272.365 15.032,275.500 15.099 M308.307 15.090 C 309.026 15.179,310.106 15.177,310.707 15.086 C 311.308 14.995,310.720 14.922,309.400 14.924 C 308.080 14.926,307.588 15.001,308.307 15.090 M329.300 15.097 C 331.005 15.172,333.795 15.172,335.500 15.097 C 337.205 15.022,335.810 14.961,332.400 14.961 C 328.990 14.961,327.595 15.022,329.300 15.097 M59.044 16.432 C 57.309 17.085,54.737 17.908,53.330 18.262 C 51.923 18.615,50.858 18.991,50.964 19.097 C 51.373 19.507,59.016 17.314,62.564 15.769 C 65.004 14.707,62.256 15.225,59.044 16.432 M341.932 16.398 C 344.628 17.674,348.737 18.997,349.045 18.688 C 349.147 18.586,348.393 18.292,347.370 18.034 C 346.346 17.776,344.455 17.033,343.166 16.383 C 341.877 15.732,340.503 15.200,340.111 15.200 C 339.720 15.200,340.539 15.740,341.932 16.398 M353.400 19.795 C 354.500 20.094,355.920 20.537,356.555 20.780 C 357.191 21.023,357.786 21.147,357.878 21.055 C 358.131 20.803,353.164 19.196,352.222 19.226 C 351.770 19.241,352.300 19.497,353.400 19.795 M40.525 23.333 C 38.976 24.506,36.888 25.695,35.883 25.977 C 33.951 26.518,33.081 27.278,31.645 29.680 C 31.158 30.494,30.094 31.566,29.280 32.062 C 27.473 33.162,26.861 33.972,25.721 36.763 C 25.236 37.952,24.284 39.572,23.606 40.363 C 21.975 42.264,19.996 45.250,20.016 45.778 C 20.025 46.010,20.320 45.660,20.671 45.000 C 21.023 44.340,22.018 43.026,22.882 42.081 C 24.343 40.481,26.799 35.999,26.800 34.930 C 26.800 34.672,27.361 34.042,28.047 33.530 C 29.958 32.104,32.113 29.877,33.000 28.412 C 33.609 27.405,34.386 26.880,36.256 26.211 C 38.565 25.385,42.073 23.158,43.196 21.805 C 44.052 20.773,43.443 21.122,40.525 23.333 M360.155 23.038 C 361.740 24.809,362.862 25.587,364.997 26.399 C 366.718 27.053,366.097 26.542,363.817 25.426 C 362.583 24.822,361.090 23.671,360.383 22.779 C 359.695 21.910,358.992 21.200,358.821 21.200 C 358.649 21.200,359.250 22.027,360.155 23.038 M367.758 28.683 C 369.106 30.565,371.333 32.406,372.247 32.396 C 372.441 32.394,371.848 31.942,370.929 31.391 C 370.011 30.840,368.884 29.782,368.425 29.040 C 367.966 28.297,367.292 27.445,366.928 27.145 C 366.563 26.845,366.937 27.537,367.758 28.683 M374.032 35.462 C 375.342 38.023,376.082 38.935,377.800 40.101 C 378.525 40.593,378.256 40.213,377.122 39.141 C 376.088 38.165,374.888 36.539,374.455 35.527 C 374.021 34.516,373.488 33.578,373.270 33.443 C 373.052 33.309,373.395 34.217,374.032 35.462 M379.829 44.400 C 379.976 44.950,380.264 45.670,380.467 46.000 C 380.725 46.417,380.757 46.295,380.571 45.600 C 380.424 45.050,380.136 44.330,379.933 44.000 C 379.675 43.583,379.643 43.705,379.829 44.400 M380.822 47.816 C 380.775 49.547,382.090 53.501,383.450 55.718 C 384.232 56.993,385.028 58.883,385.220 59.918 L 385.569 61.800 385.439 60.000 C 385.306 58.161,384.616 56.366,383.193 54.157 C 382.753 53.473,382.044 51.583,381.618 49.957 C 381.193 48.331,380.834 47.367,380.822 47.816 M18.645 51.342 C 18.230 53.243,17.300 55.949,16.579 57.357 C 15.738 58.998,15.186 60.756,15.038 62.258 L 14.808 64.600 15.328 62.400 C 15.613 61.190,16.335 59.254,16.932 58.097 C 18.038 55.952,19.745 49.637,19.523 48.510 C 19.455 48.167,19.060 49.442,18.645 51.342 M385.797 152.000 C 385.797 201.390,385.843 221.595,385.900 196.900 C 385.957 172.205,385.957 131.795,385.900 107.100 C 385.843 82.405,385.797 102.610,385.797 152.000 M14.596 153.600 C 14.596 202.550,14.643 222.575,14.700 198.100 C 14.757 173.625,14.757 133.575,14.700 109.100 C 14.643 84.625,14.596 104.650,14.596 153.600 M70.982 69.557 C 68.829 70.884,67.531 73.564,67.632 76.477 C 67.649 76.985,67.914 76.230,68.221 74.800 C 68.673 72.689,69.054 71.945,70.244 70.844 L 71.711 69.488 77.687 69.700 C 83.365 69.901,83.780 69.972,85.977 71.124 C 88.339 72.362,92.045 73.623,93.173 73.572 C 93.518 73.556,92.542 73.185,91.004 72.747 C 89.466 72.309,87.930 71.698,87.589 71.390 C 86.333 70.253,83.910 69.586,80.303 69.385 C 78.266 69.272,75.602 69.100,74.382 69.004 C 72.708 68.872,71.874 69.008,70.982 69.557 M168.924 70.213 C 166.372 71.485,164.345 73.669,163.386 76.182 C 162.492 78.522,162.602 78.728,166.240 81.514 C 169.035 83.656,173.451 88.011,176.879 92.009 C 177.912 93.214,178.767 93.994,178.779 93.743 C 178.815 92.968,169.726 83.765,166.604 81.416 C 163.015 78.715,162.815 78.216,164.253 75.573 C 165.435 73.401,167.164 71.832,169.899 70.446 C 171.598 69.585,171.605 69.585,200.499 69.692 L 229.400 69.800 231.388 70.800 C 238.242 74.248,238.934 78.510,233.237 82.189 C 229.991 84.285,226.284 87.882,224.325 90.836 C 223.513 92.060,222.557 93.304,222.198 93.601 C 221.428 94.241,220.393 96.143,220.416 96.880 C 220.424 97.166,220.699 96.784,221.025 96.031 C 221.352 95.278,221.978 94.411,222.415 94.104 C 222.853 93.798,223.592 92.800,224.058 91.887 C 225.137 89.771,231.099 83.968,234.104 82.108 C 239.274 78.907,238.307 73.914,231.818 70.302 L 230.200 69.401 200.598 69.291 L 170.996 69.180 168.924 70.213 M317.523 69.827 C 316.051 70.120,314.136 70.722,313.269 71.165 C 312.401 71.608,310.134 72.360,308.231 72.838 C 306.329 73.315,304.847 73.780,304.938 73.872 C 305.199 74.132,313.195 72.023,314.493 71.352 C 316.255 70.441,321.278 69.600,324.960 69.600 C 329.468 69.600,330.488 70.643,331.805 76.600 C 332.097 77.920,332.351 78.521,332.368 77.936 C 332.428 75.946,330.898 71.939,329.546 70.544 L 328.243 69.200 324.222 69.247 C 322.010 69.272,318.995 69.533,317.523 69.827 M96.772 74.410 C 99.862 75.234,101.103 75.857,102.812 77.443 C 103.369 77.959,105.220 78.989,106.926 79.730 C 110.138 81.127,111.301 81.936,112.509 83.615 C 113.213 84.593,113.214 84.592,112.615 83.332 C 111.868 81.760,110.652 80.913,106.740 79.237 C 105.056 78.516,103.178 77.404,102.566 76.764 C 101.325 75.469,98.332 74.220,95.600 73.856 C 94.357 73.691,94.720 73.862,96.772 74.410 M298.932 75.312 C 297.795 75.801,295.905 77.082,294.732 78.161 C 292.192 80.497,293.365 80.014,296.116 77.591 C 297.293 76.554,298.913 75.622,300.316 75.173 C 301.572 74.772,302.240 74.439,301.800 74.434 C 301.360 74.429,300.069 74.824,298.932 75.312 M68.083 79.577 C 68.700 80.771,69.590 81.697,70.800 82.402 C 71.790 82.979,72.998 84.070,73.485 84.826 C 75.237 87.546,75.680 88.041,77.248 89.030 C 78.123 89.582,78.998 90.432,79.194 90.917 C 79.448 91.549,79.557 91.611,79.575 91.136 C 79.598 90.511,78.620 89.560,76.223 87.880 C 75.658 87.483,74.842 86.467,74.411 85.621 C 73.979 84.774,73.059 83.659,72.366 83.141 C 70.716 81.908,68.334 79.596,67.683 78.595 C 67.399 78.158,67.579 78.599,68.083 79.577 M331.087 80.232 C 330.694 80.757,329.486 81.767,328.403 82.476 C 327.319 83.185,326.491 83.824,326.562 83.896 C 326.813 84.146,330.883 81.260,331.479 80.409 C 332.314 79.216,331.965 79.058,331.087 80.232 M290.378 81.139 C 288.461 82.368,286.943 83.876,287.282 84.215 C 287.397 84.330,287.785 83.978,288.143 83.431 C 288.501 82.884,289.605 81.962,290.597 81.381 C 292.158 80.466,292.725 80.000,292.278 80.000 C 292.211 80.000,291.356 80.513,290.378 81.139 M325.323 85.626 C 324.925 86.301,323.745 87.379,322.700 88.022 C 321.655 88.666,320.800 89.290,320.800 89.408 C 320.800 90.018,325.090 86.769,325.729 85.675 C 326.139 84.974,326.377 84.400,326.259 84.400 C 326.142 84.400,325.720 84.952,325.323 85.626 M113.541 85.490 C 113.764 85.907,114.781 87.047,115.801 88.024 C 117.797 89.935,118.480 91.027,119.656 94.179 C 120.071 95.291,120.306 95.660,120.180 95.000 C 119.720 92.604,118.032 89.746,115.610 87.266 C 114.249 85.872,113.318 85.073,113.541 85.490 M283.676 88.615 C 282.314 90.053,281.209 91.448,281.221 91.715 C 281.233 91.982,281.548 91.750,281.921 91.201 C 282.294 90.651,283.147 89.661,283.815 89.001 C 285.301 87.533,286.590 86.000,286.338 86.000 C 286.236 86.000,285.038 87.177,283.676 88.615 M178.820 94.400 C 178.816 94.510,179.071 95.320,179.388 96.200 C 179.705 97.080,179.966 97.440,179.968 97.000 C 179.971 96.335,178.845 93.785,178.820 94.400 M80.468 95.400 C 80.462 95.840,80.611 96.560,80.800 97.000 C 81.238 98.019,81.238 96.968,80.800 95.600 C 80.543 94.796,80.477 94.757,80.468 95.400 M317.808 100.103 C 316.693 104.531,316.670 104.851,316.349 121.000 C 316.169 130.020,315.843 139.200,315.625 141.400 C 315.032 147.383,315.171 149.817,315.830 145.000 C 316.710 138.574,317.176 129.042,317.224 116.505 C 317.257 107.730,317.416 104.185,317.858 102.305 C 318.702 98.720,319.225 95.892,319.072 95.739 C 318.999 95.666,318.430 97.630,317.808 100.103 M120.468 96.800 C 120.488 97.839,121.118 99.546,121.132 98.600 C 121.138 98.160,120.989 97.440,120.800 97.000 C 120.589 96.510,120.461 96.432,120.468 96.800 M219.815 99.815 C 219.661 101.054,219.617 102.150,219.719 102.252 C 219.820 102.354,220.030 101.423,220.185 100.185 C 220.339 98.946,220.383 97.850,220.281 97.748 C 220.180 97.646,219.970 98.577,219.815 99.815 M81.233 98.400 C 81.220 98.730,81.466 99.962,81.779 101.138 C 82.428 103.579,82.703 109.161,83.011 126.200 C 83.269 140.440,83.477 145.042,83.997 148.000 C 84.657 151.748,84.771 151.907,84.569 148.800 C 84.019 140.313,83.606 129.323,83.562 122.000 C 83.490 109.943,83.045 103.467,82.077 100.400 C 81.626 98.970,81.246 98.070,81.233 98.400 M121.202 99.803 C 121.201 100.025,121.660 101.071,122.223 102.129 C 123.497 104.521,124.782 110.201,125.181 115.200 C 125.459 118.691,125.488 118.789,125.540 116.400 C 125.605 113.431,124.670 107.063,123.778 104.400 C 123.163 102.565,121.206 99.072,121.202 99.803 M277.822 102.843 C 276.510 106.558,276.157 108.029,275.767 111.400 C 275.640 112.500,275.448 113.850,275.341 114.400 C 275.234 114.950,275.086 119.720,275.011 125.000 L 274.876 134.600 275.180 125.800 C 275.531 115.656,276.095 110.764,277.458 106.047 C 278.252 103.301,278.532 100.831,277.822 102.843 M219.331 105.400 C 219.333 106.940,219.405 107.521,219.492 106.691 C 219.579 105.861,219.577 104.601,219.489 103.891 C 219.400 103.181,219.329 103.860,219.331 105.400 M181.026 107.800 C 181.124 110.440,181.221 121.645,181.242 132.700 C 181.265 144.511,181.431 152.800,181.646 152.800 C 182.082 152.800,181.669 111.923,181.179 106.600 C 180.863 103.168,180.856 103.224,181.026 107.800 M218.894 154.650 C 218.795 203.647,218.782 203.152,220.135 203.982 L 221.000 204.513 220.200 203.615 C 219.412 202.730,219.397 202.001,219.194 155.458 L 218.989 108.200 218.894 154.650 M274.570 145.000 C 274.571 149.840,274.629 151.765,274.699 149.278 C 274.769 146.791,274.769 142.831,274.698 140.478 C 274.628 138.125,274.570 140.160,274.570 145.000 M125.769 151.400 C 125.770 156.020,125.828 157.855,125.899 155.478 C 125.970 153.101,125.969 149.321,125.898 147.078 C 125.827 144.835,125.769 146.780,125.769 151.400 M314.914 151.800 C 314.917 152.900,314.995 153.303,315.087 152.695 C 315.179 152.086,315.177 151.186,315.082 150.695 C 314.987 150.203,314.911 150.700,314.914 151.800 M274.134 158.800 C 274.134 160.450,274.205 161.125,274.291 160.300 C 274.378 159.475,274.378 158.125,274.291 157.300 C 274.205 156.475,274.134 157.150,274.134 158.800 M313.693 160.000 C 313.693 160.770,313.775 161.085,313.876 160.700 C 313.976 160.315,313.976 159.685,313.876 159.300 C 313.775 158.915,313.693 159.230,313.693 160.000 M181.267 179.800 C 181.118 203.482,181.157 203.060,179.000 204.281 C 178.120 204.779,177.555 205.190,177.746 205.193 C 177.936 205.197,178.784 204.811,179.631 204.335 C 181.702 203.171,181.655 203.770,181.513 180.000 L 181.392 159.800 181.267 179.800 M126.093 161.600 C 126.093 162.370,126.175 162.685,126.276 162.300 C 126.376 161.915,126.376 161.285,126.276 160.900 C 126.175 160.515,126.093 160.830,126.093 161.600 M313.293 163.600 C 313.293 164.370,313.375 164.685,313.476 164.300 C 313.576 163.915,313.576 163.285,313.476 162.900 C 313.375 162.515,313.293 162.830,313.293 163.600 M86.514 164.600 C 86.517 165.700,86.595 166.103,86.687 165.495 C 86.779 164.886,86.777 163.986,86.682 163.495 C 86.587 163.003,86.511 163.500,86.514 164.600 M312.794 167.300 C 312.784 169.243,311.803 173.044,311.043 174.085 C 308.762 177.204,308.400 177.762,308.402 178.159 C 308.403 178.402,308.718 178.123,309.102 177.540 C 309.486 176.957,310.270 175.877,310.845 175.140 C 312.351 173.208,314.094 166.000,313.055 166.000 C 312.915 166.000,312.797 166.585,312.794 167.300 M127.439 168.800 C 127.566 169.350,128.310 170.860,129.093 172.155 C 129.876 173.450,130.749 175.250,131.032 176.155 C 131.315 177.060,131.559 177.508,131.573 177.150 C 131.617 176.093,130.550 173.418,129.337 171.546 C 128.715 170.586,127.982 169.350,127.707 168.800 L 127.208 167.800 127.439 168.800 M87.236 169.686 C 87.169 170.970,88.467 174.196,89.658 175.705 C 90.311 176.532,91.092 177.882,91.394 178.705 C 91.696 179.527,91.952 179.930,91.963 179.600 C 91.989 178.793,90.595 175.768,90.039 175.424 C 89.400 175.029,88.351 172.890,87.771 170.800 C 87.496 169.810,87.255 169.309,87.236 169.686 M272.086 171.115 C 271.822 171.712,271.175 172.782,270.648 173.494 C 269.707 174.762,266.237 183.171,266.533 183.466 C 266.615 183.549,267.444 181.639,268.373 179.223 C 269.303 176.806,270.583 174.177,271.216 173.379 C 272.339 171.967,273.030 170.497,272.718 170.185 C 272.633 170.100,272.349 170.519,272.086 171.115 M132.833 181.292 C 132.726 182.247,134.209 184.735,135.349 185.513 C 136.085 186.015,137.188 187.365,137.800 188.513 C 139.153 191.049,140.328 192.402,141.170 192.394 C 141.551 192.391,141.405 192.191,140.800 191.891 C 140.233 191.609,139.333 190.441,138.722 189.197 C 138.129 187.988,136.840 186.280,135.858 185.400 C 134.876 184.520,133.801 183.170,133.469 182.400 C 133.137 181.630,132.851 181.131,132.833 181.292 M306.678 183.719 C 306.175 185.315,305.518 186.339,304.292 187.437 C 303.361 188.270,302.350 189.323,302.045 189.776 C 301.547 190.514,301.589 190.506,302.445 189.702 C 302.970 189.209,303.975 188.346,304.677 187.786 C 305.888 186.820,307.807 182.822,307.501 181.903 C 307.430 181.691,307.060 182.508,306.678 183.719 M263.788 186.064 C 262.996 186.759,261.924 188.165,261.406 189.189 C 260.283 191.405,259.976 191.672,257.482 192.605 C 256.427 193.000,254.485 194.285,253.167 195.461 C 251.848 196.638,250.567 197.600,250.318 197.600 C 250.070 197.600,249.970 197.703,250.096 197.829 C 250.470 198.204,252.510 196.968,253.800 195.585 C 254.460 194.878,256.036 193.803,257.303 193.196 C 260.294 191.764,260.674 191.423,261.840 189.121 C 262.399 188.018,263.524 186.681,264.469 185.996 C 265.377 185.338,265.919 184.800,265.674 184.800 C 265.429 184.800,264.580 185.369,263.788 186.064 M93.616 185.281 C 93.551 186.431,96.075 190.000,96.953 190.000 C 97.175 190.000,96.803 189.415,96.125 188.700 C 95.448 187.985,94.610 186.860,94.263 186.200 C 93.916 185.540,93.625 185.127,93.616 185.281 M300.680 192.793 C 299.534 196.019,292.320 203.732,288.000 206.349 C 287.230 206.815,286.780 207.197,287.000 207.197 C 289.997 207.197,303.113 192.580,301.534 191.001 C 301.446 190.912,301.061 191.719,300.680 192.793 M97.600 191.481 C 97.600 194.120,113.674 209.659,115.016 208.317 C 115.091 208.242,114.183 207.673,112.997 207.052 C 110.623 205.810,101.247 196.491,98.917 193.060 C 98.193 191.993,97.600 191.282,97.600 191.481 M143.400 193.261 C 144.280 193.714,145.765 194.824,146.700 195.726 C 147.635 196.628,148.400 197.236,148.400 197.076 C 148.400 196.148,143.280 192.353,142.116 192.418 C 141.942 192.427,142.520 192.807,143.400 193.261 M158.000 200.098 C 158.110 200.215,159.608 200.693,161.329 201.162 C 163.050 201.630,165.129 202.356,165.949 202.774 C 167.754 203.695,172.994 204.823,175.083 204.740 C 176.386 204.689,176.431 204.659,175.400 204.533 C 171.355 204.039,168.777 203.419,166.634 202.424 C 165.295 201.803,163.213 201.086,162.007 200.832 C 160.801 200.577,159.361 200.260,158.807 200.128 C 158.253 199.996,157.890 199.982,158.000 200.098 M238.200 200.974 C 235.302 201.946,231.855 203.600,232.728 203.600 C 233.002 203.600,233.895 203.304,234.713 202.942 C 235.531 202.580,237.550 201.780,239.200 201.164 C 242.840 199.806,242.103 199.666,238.200 200.974 M230.310 203.823 C 230.188 203.946,228.583 204.191,226.744 204.368 C 223.666 204.665,223.591 204.692,225.800 204.707 C 228.056 204.722,233.164 203.750,231.367 203.648 C 230.908 203.621,230.433 203.700,230.310 203.823 M281.759 210.002 C 280.681 211.113,279.052 212.296,278.099 212.660 C 277.155 213.020,276.459 213.392,276.552 213.486 C 277.090 214.024,280.911 211.720,282.391 209.965 C 284.524 207.435,284.232 207.452,281.759 210.002 M116.838 209.942 C 118.128 211.593,120.558 213.219,121.684 213.184 C 121.968 213.176,121.570 212.897,120.800 212.565 C 120.030 212.233,118.517 211.115,117.438 210.081 L 115.477 208.200 116.838 209.942 M272.901 214.596 C 272.187 214.906,270.912 215.715,270.068 216.394 C 269.224 217.072,267.648 217.972,266.567 218.395 C 264.213 219.314,264.711 219.454,267.252 218.588 C 268.239 218.252,269.657 217.420,270.403 216.738 C 271.149 216.057,272.489 215.175,273.380 214.778 C 274.271 214.381,274.820 214.051,274.600 214.044 C 274.380 214.037,273.616 214.285,272.901 214.596 M128.600 216.657 C 130.241 218.117,131.223 218.629,133.118 219.013 C 133.713 219.134,133.342 218.882,132.294 218.453 C 131.246 218.024,129.755 217.117,128.981 216.437 C 128.206 215.756,127.443 215.207,127.286 215.217 C 127.129 215.226,127.720 215.874,128.600 216.657 M256.400 220.672 C 256.070 220.787,254.054 221.684,251.920 222.666 C 248.812 224.096,247.221 224.562,243.920 225.011 L 239.800 225.570 243.200 225.357 C 248.120 225.049,251.859 223.969,253.950 222.252 C 254.252 222.003,255.332 221.499,256.350 221.131 C 257.367 220.763,257.930 220.462,257.600 220.463 C 257.270 220.463,256.730 220.557,256.400 220.672 M143.000 221.296 C 143.660 221.573,145.010 222.280,146.000 222.867 C 147.879 223.982,150.027 224.663,153.286 225.178 C 155.986 225.605,155.266 225.124,152.299 224.519 C 150.949 224.244,148.575 223.395,147.022 222.634 C 145.470 221.872,143.660 221.146,143.000 221.021 L 141.800 220.793 143.000 221.296 M156.505 225.487 C 157.114 225.579,158.014 225.577,158.505 225.482 C 158.997 225.387,158.500 225.311,157.400 225.314 C 156.300 225.317,155.897 225.395,156.505 225.487 M160.500 225.887 C 161.105 225.978,162.095 225.978,162.700 225.887 C 163.305 225.795,162.810 225.720,161.600 225.720 C 160.390 225.720,159.895 225.795,160.500 225.887 M237.105 225.883 C 237.602 225.979,238.322 225.975,238.705 225.875 C 239.087 225.775,238.680 225.696,237.800 225.701 C 236.920 225.705,236.607 225.787,237.105 225.883 M166.505 226.287 C 167.114 226.379,168.014 226.377,168.505 226.282 C 168.997 226.187,168.500 226.111,167.400 226.114 C 166.300 226.117,165.897 226.195,166.505 226.287 M231.700 226.287 C 232.305 226.378,233.295 226.378,233.900 226.287 C 234.505 226.195,234.010 226.120,232.800 226.120 C 231.590 226.120,231.095 226.195,231.700 226.287 M172.300 226.689 C 173.015 226.778,174.185 226.778,174.900 226.689 C 175.615 226.601,175.030 226.528,173.600 226.528 C 172.170 226.528,171.585 226.601,172.300 226.689 M221.461 226.700 C 221.358 226.865,222.382 226.950,223.737 226.889 C 228.148 226.689,228.670 226.529,225.124 226.464 C 223.212 226.429,221.563 226.535,221.461 226.700 M179.829 228.000 C 180.020 228.330,180.480 229.950,180.853 231.600 C 181.226 233.250,181.543 234.240,181.559 233.800 C 181.607 232.458,180.520 228.358,179.986 227.864 C 179.593 227.502,179.559 227.532,179.829 228.000 M219.054 231.456 C 218.335 236.707,219.103 246.293,220.324 247.300 C 220.847 247.731,220.873 247.690,220.513 247.000 C 219.577 245.207,219.086 240.405,219.291 235.034 C 219.512 229.246,219.462 228.484,219.054 231.456 M181.266 238.200 C 181.147 242.739,180.328 246.666,179.345 247.410 C 178.711 247.891,166.845 247.991,99.600 248.086 L 20.600 248.198 99.537 248.300 C 190.711 248.418,180.322 248.976,181.170 243.915 C 181.438 242.312,181.591 239.560,181.509 237.800 L 181.361 234.600 181.266 238.200 M384.773 245.800 C 384.448 248.057,386.427 248.008,299.938 247.899 C 256.674 247.845,221.360 247.935,221.462 248.100 C 221.777 248.611,377.916 248.467,381.374 247.953 C 384.595 247.474,385.353 246.979,385.104 245.522 C 384.967 244.722,384.923 244.758,384.773 245.800 M15.206 245.876 C 15.203 246.358,15.392 246.871,15.627 247.016 C 16.282 247.421,16.317 247.098,15.739 246.000 C 15.233 245.041,15.212 245.036,15.206 245.876 M162.400 273.683 C 155.690 273.860,120.680 274.083,84.600 274.177 C 11.994 274.368,16.005 274.246,14.598 276.318 L 13.600 277.786 13.602 304.993 C 13.605 333.861,13.664 334.925,15.549 339.844 C 16.214 341.580,17.415 345.430,18.218 348.400 C 19.637 353.649,20.806 356.124,22.306 357.052 C 22.708 357.301,23.863 358.921,24.873 360.652 C 27.823 365.710,35.248 372.760,40.400 375.394 C 41.830 376.125,43.540 377.297,44.200 377.998 C 45.878 379.778,46.683 380.115,52.800 381.595 C 55.770 382.314,59.100 383.296,60.200 383.777 C 65.138 385.939,55.472 385.800,200.600 385.800 L 335.000 385.800 338.695 384.519 C 340.728 383.814,343.068 383.123,343.895 382.981 C 349.928 381.953,356.131 379.663,358.400 377.627 C 359.170 376.936,361.284 375.643,363.097 374.753 C 365.309 373.667,366.857 372.586,367.803 371.467 C 368.577 370.550,370.128 369.170,371.248 368.400 C 373.375 366.937,373.593 366.631,375.532 362.400 C 376.187 360.970,377.291 359.170,377.985 358.400 C 379.741 356.452,380.704 354.468,381.427 351.309 C 381.768 349.819,382.873 346.904,383.882 344.832 C 386.419 339.623,386.414 339.683,386.662 307.279 C 386.891 277.166,386.902 277.378,385.068 275.672 C 383.867 274.556,386.713 274.588,298.572 274.701 L 221.344 274.800 219.634 276.264 L 217.923 277.728 218.127 289.764 C 218.288 299.306,218.490 302.646,219.100 305.880 C 219.892 310.082,220.051 310.427,222.287 312.800 C 223.013 313.570,224.190 314.984,224.903 315.941 C 226.460 318.031,227.092 318.386,232.000 319.922 C 234.090 320.576,236.790 321.515,238.000 322.009 C 239.210 322.503,240.905 323.194,241.766 323.544 C 242.628 323.895,244.226 325.052,245.318 326.115 L 247.303 328.049 246.222 329.177 C 245.628 329.797,244.210 330.821,243.071 331.452 L 241.000 332.600 200.200 332.573 L 159.400 332.546 157.400 331.510 C 156.300 330.941,154.860 329.902,154.200 329.201 L 153.000 327.928 154.912 326.188 C 155.996 325.202,157.814 324.082,159.112 323.602 C 160.370 323.137,162.431 322.224,163.691 321.574 C 164.951 320.924,167.395 320.055,169.122 319.642 C 179.955 317.055,182.728 309.554,182.788 282.674 L 182.800 277.548 180.626 275.374 C 178.550 273.298,178.365 273.204,176.526 273.281 C 175.467 273.326,169.110 273.507,162.400 273.683 M179.038 277.667 C 180.530 279.159,179.006 310.400,177.441 310.400 C 176.434 310.400,174.404 312.426,173.485 314.348 C 172.611 316.178,172.571 316.203,170.200 316.488 C 161.593 317.523,158.464 318.439,156.271 320.567 C 155.572 321.245,154.014 322.340,152.809 323.000 C 147.121 326.116,147.540 329.966,153.897 332.979 C 155.604 333.788,157.366 334.906,157.812 335.463 C 159.137 337.114,160.401 337.164,200.600 337.180 C 240.625 337.196,241.114 337.176,242.851 335.441 C 243.373 334.920,244.970 334.003,246.400 333.405 C 252.212 330.972,253.075 325.489,248.048 322.933 C 247.254 322.530,245.882 321.472,244.998 320.583 C 243.028 318.600,240.695 317.866,233.400 316.934 C 227.444 316.173,227.390 316.148,227.037 313.939 C 226.774 312.294,225.725 311.019,222.917 308.931 C 221.177 307.637,220.794 304.206,220.797 289.949 C 220.799 280.394,220.906 278.010,221.349 277.642 C 221.998 277.104,381.464 277.229,383.300 277.770 L 384.400 278.093 384.400 302.642 L 384.400 327.190 383.404 330.895 C 382.856 332.933,381.807 336.760,381.073 339.400 C 380.339 342.040,379.514 346.180,379.240 348.600 C 378.614 354.133,378.572 354.270,377.416 354.560 C 375.125 355.135,372.000 360.366,372.000 363.625 C 372.000 364.278,370.473 365.559,368.924 366.206 C 368.101 366.550,366.301 367.975,364.923 369.373 C 363.085 371.239,361.803 372.151,360.109 372.797 C 355.850 374.423,355.723 374.523,353.788 377.802 C 353.332 378.575,347.434 379.545,342.977 379.581 C 341.645 379.591,338.585 379.981,336.177 380.446 L 331.800 381.292 208.400 381.369 C 84.010 381.446,69.078 381.332,63.600 380.258 C 61.950 379.935,58.980 379.553,57.000 379.410 C 50.713 378.955,49.391 378.530,47.408 376.324 C 45.660 374.380,43.615 373.212,41.913 373.186 C 40.401 373.162,39.251 372.271,38.301 370.386 C 37.618 369.031,36.917 368.353,35.400 367.575 C 33.857 366.785,33.162 366.101,32.357 364.585 C 31.612 363.179,30.825 362.360,29.595 361.710 C 27.565 360.637,27.009 359.920,26.639 357.902 C 26.293 356.016,24.900 354.372,23.151 353.786 C 21.591 353.264,21.250 351.923,20.431 343.102 C 20.150 340.076,19.661 337.514,19.056 335.902 C 18.540 334.526,18.000 332.140,17.856 330.600 C 17.542 327.235,17.415 278.452,17.719 278.147 C 18.800 277.067,23.575 277.000,99.988 277.000 C 172.628 277.000,178.420 277.049,179.038 277.667 " stroke="none" fill="#a28cc4" fill-rule="evenodd"></path></g></svg>